<svg version="1.1" id="Layer_1" xmlns="http://www.w3.org/2000/svg" x="0" y="0" viewBox="0 0 400 400" xml:space="preserve">
  <style>
    .st0{opacity:8.000000e-02}.st1{fill:#8346e5}.st2{opacity:.1;fill-rule:evenodd;clip-rule:evenodd;fill:#fff}
  </style>
  <g class="st0">
    <path class="st1" d="M0 0h200v200H0V0z"/>
  </g>
  <path id="椭圆_5" class="st2" d="M103.5 47.7V22.1l63.8 63.5c-9.7-1.8-19.6-3.1-29.5-3.8l-34.3-34.1zm13.6 50.1v2.5c-1.4 0-2.9.1-4.4.1-3.1-6.9-11.2-10.1-18.1-7-3.1 1.4-5.6 3.9-7 7-1.5 0-2.9-.1-4.4-.1v-2.5c0-15 6.8-32.2 9.2-34.5 5.1-1 10.4-1 15.5 0 2.3 2.3 9.2 19.5 9.2 34.5zM32.8 85.6l63.8-63.5v25.6L62.3 81.8c-9.9.7-19.8 2-29.5 3.8zm2.7 7.6c0-2.1 8-4 20.7-5.3l-9.5 9.4c-7.1-1.2-11.2-2.6-11.2-4.1zm42.7-23.9c-3.2 6.2-8.5 18.4-8.6 30.3-2.6-.2-5.2-.3-7.6-.5.4-11.9 6.4-23 16.2-29.8zm15.3 36.9a6.7 6.7 0 116.7 6.7c-3.7 0-6.7-3-6.7-6.7zm44.7-7.1c-2.4.2-4.9.4-7.6.5-.1-11.9-5.4-24.1-8.6-30.3 9.8 6.8 15.8 17.9 16.2 29.8zm5.6-11.2c12.7 1.3 20.7 3.2 20.7 5.3 0 1.5-4.2 2.9-11.3 4.1l-9.4-9.4zM51 107.2c9.9 1 21.5 1.8 34.2 2.2v.1h1.6c1.9 7.4 9.4 11.8 16.8 9.9 4.8-1.3 8.6-5 9.9-9.9h.7v-.1c13.8-.4 26.5-1.2 37-2.4 13-1.6 23.4-3.7 29.8-6.2l-77.4 77.1v-25.3l43.4-43.2c-3.2.3-6.5.7-10 .9-4.6 16.4-19.6 27.7-36.6 27.7h-.4c-17 0-32-11.3-36.6-27.7-3.6-.3-7-.6-10.2-1l43.3 43.1v25.3l-77.4-77.1c6.7 2.8 17.9 5 31.9 6.6zm49.1 25.4c13.4 0 25.1-8.8 28.8-21.7-4.4.3-8.9.5-13.6.6-2.4 5.7-7.8 9.7-13.9 10.3-.9.1-1.7.1-2.6 0-6.2-.7-11.5-4.6-13.9-10.3-4.7-.1-9.2-.4-13.6-.6 3.7 12.9 15.4 21.7 28.8 21.7z"/>
  <g class="st0">
    <path class="st1" d="M200 200h200v200H200V200z"/>
  </g>
  <path id="椭圆_5_1_" class="st2" d="M303.5 247.7v-25.6l63.8 63.5c-9.7-1.8-19.6-3.1-29.5-3.8l-34.3-34.1zm13.6 50.1v2.5c-1.4 0-2.9.1-4.4.1-3.1-6.9-11.2-10.1-18.1-7-3.1 1.4-5.6 3.9-7 7-1.5 0-2.9-.1-4.4-.1v-2.5c0-15 6.8-32.2 9.2-34.5 5.1-1 10.4-1 15.5 0 2.3 2.3 9.2 19.5 9.2 34.5zm-84.3-12.2l63.8-63.5v25.6l-34.3 34.1c-9.9.7-19.8 2-29.5 3.8zm2.7 7.6c0-2.1 8-4 20.7-5.3l-9.5 9.4c-7.1-1.2-11.2-2.6-11.2-4.1zm42.7-23.9c-3.2 6.2-8.5 18.4-8.6 30.3-2.6-.2-5.2-.3-7.6-.5.4-11.9 6.4-23 16.2-29.8zm15.3 36.9a6.7 6.7 0 116.7 6.7c-3.7 0-6.7-3-6.7-6.7zm44.7-7.1c-2.4.2-4.9.4-7.6.5-.1-11.9-5.4-24.1-8.6-30.3 9.8 6.8 15.8 17.9 16.2 29.8zm5.6-11.2c12.7 1.3 20.7 3.2 20.7 5.3 0 1.5-4.2 2.9-11.3 4.1l-9.4-9.4zM251 307.2c9.9 1 21.5 1.8 34.2 2.2v.1h1.6c1.9 7.4 9.4 11.8 16.8 9.9 4.8-1.3 8.6-5 9.9-9.9h.7v-.1c13.8-.4 26.5-1.2 37-2.4 13-1.6 23.4-3.7 29.8-6.2l-77.4 77.1v-25.3l43.4-43.2c-3.2.3-6.5.7-10 .9-4.6 16.4-19.6 27.7-36.6 27.7h-.4c-17 0-32-11.3-36.6-27.7-3.6-.3-7-.6-10.2-1l43.3 43.1v25.3l-77.4-77.1c6.7 2.8 17.9 5 31.9 6.6zm49.1 25.4c13.4 0 25.1-8.8 28.8-21.7-4.4.3-8.9.5-13.6.6-2.4 5.7-7.8 9.7-13.9 10.3-.9.1-1.7.1-2.6 0-6.2-.7-11.5-4.6-13.9-10.3-4.7-.1-9.2-.4-13.6-.6 3.7 12.9 15.4 21.7 28.8 21.7z"/>
</svg>
