<svg enable-background="new 0 0 400 400" viewBox="0 0 400 400" xmlns="http://www.w3.org/2000/svg"><g opacity=".13"><path d="m0 0h200v200h-200z" fill="#ff4d50"/><g fill="#fff" opacity=".5"><path d="m100 29.71c-38.82 0-70.29 31.47-70.29 70.29s31.47 70.29 70.29 70.29 70.29-31.47 70.29-70.29-31.47-70.29-70.29-70.29zm43.2 113.49c-5.61 5.61-12.15 10.02-19.42 13.1-7.53 3.18-15.53 4.8-23.78 4.8s-16.25-1.61-23.78-4.8c-7.27-3.08-13.81-7.48-19.42-13.1-5.61-5.61-10.02-12.15-13.1-19.42-3.18-7.53-4.8-15.53-4.8-23.78s1.61-16.25 4.8-23.78c3.08-7.27 7.48-13.81 13.1-19.42s12.15-10.02 19.42-13.1c7.53-3.18 15.53-4.8 23.78-4.8s16.25 1.61 23.78 4.8c7.27 3.08 13.81 7.48 19.42 13.1s10.02 12.15 13.1 19.42c3.18 7.53 4.8 15.53 4.8 23.78s-1.61 16.25-4.8 23.78c-3.07 7.28-7.48 13.81-13.1 19.42z"/><path d="m133.4 71.06c-.17-1.53-1.46-2.68-3-2.68h-7.58c-2.23-10.56-11.6-18.48-22.82-18.48s-20.59 7.92-22.83 18.47h-7.58c-1.54 0-2.83 1.16-3 2.68l-6.87 62.08c-.2 1.78 1.2 3.35 3 3.35h74.55c1.8 0 3.19-1.56 3-3.35zm-46.07-10.49c3.38-3.38 7.88-5.25 12.67-5.25 4.78 0 9.28 1.86 12.67 5.25 2.2 2.2 3.76 4.88 4.58 7.8h-34.5c.82-2.92 2.38-5.59 4.58-7.8zm12.67 64.33c-11.05 0-20.22-8.06-21.94-18.63h13.7c1.39 3.17 4.55 5.39 8.24 5.39s6.85-2.22 8.24-5.39h13.7c-1.72 10.57-10.89 18.63-21.94 18.63zm8.24-25.83c-1.39-3.17-4.55-5.39-8.24-5.39s-6.85 2.22-8.24 5.39h-13.7c1.72-10.56 10.89-18.63 21.94-18.63s20.22 8.06 21.94 18.63z"/></g><path d="m200 200h200v200h-200z" fill="#ff4d50"/><g fill="#fff" opacity=".5"><path d="m300 229.71c-38.82 0-70.29 31.47-70.29 70.29s31.47 70.29 70.29 70.29 70.29-31.47 70.29-70.29-31.47-70.29-70.29-70.29zm43.2 113.49c-5.61 5.61-12.15 10.02-19.42 13.1-7.53 3.18-15.53 4.8-23.78 4.8s-16.25-1.61-23.78-4.8c-7.27-3.08-13.81-7.48-19.42-13.1-5.61-5.61-10.02-12.15-13.1-19.42-3.18-7.53-4.8-15.53-4.8-23.78s1.61-16.25 4.8-23.78c3.08-7.27 7.48-13.81 13.1-19.42 5.61-5.61 12.15-10.02 19.42-13.1 7.53-3.18 15.53-4.8 23.78-4.8s16.25 1.61 23.78 4.8c7.27 3.08 13.81 7.48 19.42 13.1 5.61 5.61 10.02 12.15 13.1 19.42 3.18 7.53 4.8 15.53 4.8 23.78s-1.61 16.25-4.8 23.78c-3.07 7.28-7.48 13.81-13.1 19.42z"/><path d="m333.4 271.06c-.17-1.53-1.46-2.68-3-2.68h-7.58c-2.24-10.55-11.61-18.47-22.83-18.47s-20.59 7.92-22.83 18.47h-7.58c-1.54 0-2.83 1.16-3 2.68l-6.87 62.08c-.2 1.78 1.2 3.35 3 3.35h74.55c1.8 0 3.19-1.56 3-3.35zm-46.07-10.49c3.38-3.38 7.88-5.25 12.67-5.25 4.78 0 9.28 1.86 12.67 5.25 2.2 2.2 3.76 4.88 4.58 7.8h-34.49c.81-2.92 2.37-5.59 4.57-7.8zm12.67 64.33c-11.05 0-20.22-8.06-21.94-18.63h13.7c1.39 3.17 4.55 5.39 8.24 5.39s6.85-2.22 8.24-5.39h13.7c-1.72 10.57-10.89 18.63-21.94 18.63zm8.24-25.83c-1.39-3.17-4.55-5.39-8.24-5.39s-6.85 2.22-8.24 5.39h-13.7c1.72-10.56 10.89-18.63 21.94-18.63s20.22 8.06 21.94 18.63z"/></g></g></svg>